<?xml version="1.0" encoding="utf-8"?>
<svg xmlns="http://www.w3.org/2000/svg" viewBox="0 0 512 512" width="72" height="72" fill="#bfdbfe"
     stroke="">
    <g>
        <path d="M211.86,17.66V0C161.83,0.12,109.35,24.53,68.82,67.33C28.32,110.14-0.04,172.08,0,247.17   c-0.04,75.04,28.29,141.59,75.79,189.04c47.45,47.5,113.99,75.83,189.04,75.79c75.09,0.04,137.03-28.32,179.85-68.82   c42.8-40.53,67.21-93.01,67.33-143.04c0-6.42-3.53-12.39-9.16-15.48c-5.63-3.09-12.56-2.87-17.97,0.58   c-37.55,23.87-74.99,33.97-110.09,34c-49.76,0-95.21-20.53-128.36-53.66c-33.13-33.15-53.66-78.6-53.66-128.36   c0.02-35.1,10.13-72.54,34-110.09c3.45-5.42,3.67-12.35,0.58-17.97C224.25,3.53,218.28,0,211.86,0V17.66l-14.89-9.48   c-27.22,42.73-39.54,87.08-39.52,129.05c0.12,119.25,98.07,217.2,217.33,217.33c41.97,0.02,86.32-12.29,129.05-39.52l-9.48-14.89   h-17.66c0.12,38.24-19.61,82.87-56.26,117.37c-36.63,34.53-89.45,59.14-155.6,59.18c-66.2-0.04-123.24-24.68-164.07-65.45   c-40.77-40.83-65.41-97.87-65.45-164.07c0.04-66.15,24.65-118.97,59.18-155.6C129,54.92,173.62,35.19,211.86,35.31V17.66   l-14.89-9.48L211.86,17.66z"/>
    </g>
</svg>